<?xml version="1.0" encoding="UTF-8" standalone="no"?>
<svg xmlns="http://www.w3.org/2000/svg" viewBox="0 0 77 77">
    <path id="big_N" fill="#8bc540" d="m 34.691711,49.209351 9.435,15.895 c -3.0375,0.645 -6.205,0.78 -9.3925,0.3337 l -0.0425,-16.2284 z m -9.9462,-21.94 0,34.71 c -10.7688,-6.3124 -16.1187999,-19.4788 -12.1113,-31.8224 4.6275,-14.2564 19.9913,-22.0863998 34.245,-17.4614 14.2513,4.6275 22.0838,19.99 17.4563,34.245 -1.535,4.7338 -4.2775,8.7388 -7.75,11.8313 l -0.0225,-31.5028 -10.01,0 0.5925,26.1937 -13.6438,-26.195 -8.7562,0.0012 z m 51.6025,8.8709 c -0.8688,-13.54 -9.0163,-25.9437 -21.7263,-31.9049998 -0.01,-0.0025 -0.0187,-0.01 -0.0287,-0.0137 -0.5413,-0.2526 -1.085,-0.49 -1.6438,-0.719 -0.8237,-0.3486 -1.665,-0.6686 -2.5162,-0.96 -0.08,-0.025 -0.1513,-0.0636 -0.2325,-0.09 -0.0263,-0.0086 -0.0513,-0.01 -0.0813,-0.02 -3.725,-1.2356 -7.7037,-1.91959997 -11.8312,-1.91809997 -5.185,-0.0015 -10.1413,1.05249997 -14.6438,2.95349997 -6.7612,2.8614 -12.495,7.6275998 -16.5486999,13.6289998 -1.9638,2.9074 -3.5263,6.12 -4.6238,9.5324 -0.0212,0.0712 -0.0537,0.1325 -0.0787,0.2 -0.0075,0.0212 -0.01,0.0475 -0.0175,0.0687 -0.29,0.9278 -0.5413,1.8716 -0.7613,2.8266 -4.5812,19.0685 6.1813,38.7485 25.1549999,44.911 3.28,1.065 6.5988,1.629 9.8863,1.7814 l 39.8075,0.0485 z"/>
</svg>