<?xml version="1.0" encoding="UTF-8" standalone="no"?>
<svg xmlns="http://www.w3.org/2000/svg" xmlns:xlink="http://www.w3.org/1999/xlink" viewBox="0 0 303 77">
  <g fill="#8bc540">
    <path id="big_N" d="m 34.2592,49.1394 9.435,15.895 c -3.0375,0.645 -6.205,0.78 -9.3925,0.3337 L 34.2592,49.1397 Z m -9.9462,-21.94 0,34.71 C 13.5442,55.597 8.1942,42.4306 12.2017,30.087 16.8292,15.8306 32.193,8.0006 46.4467,12.6256 c 14.2513,4.6275 22.0838,19.99 17.4563,34.245 -1.535,4.7338 -4.2775,8.7388 -7.75,11.8313 l -0.0225,-31.5028 -10.01,0 0.5925,26.1937 -13.6438,-26.195 -8.7562,0.0012 z m 51.6025,8.8709 C 75.0467,22.5303 66.8992,10.1266 54.1892,4.1653 54.1792,4.1628 54.1705,4.1553 54.1605,4.1516 53.6192,3.899 53.0755,3.6616 52.5167,3.4326 51.693,3.084 50.8517,2.764 50.0005,2.4726 49.9205,2.4476 49.8492,2.409 49.768,2.3826 49.7417,2.374 49.7167,2.3726 49.6867,2.3626 45.9617,1.127 41.983,0.443 37.8555,0.4445 32.6705,0.443 27.7142,1.497 23.2117,3.398 16.4505,6.2594 10.7167,11.0256 6.663,17.027 c -1.9638,2.9074 -3.5263,6.12 -4.6238,9.5324 -0.0212,0.0712 -0.0537,0.1325 -0.0787,0.2 -0.0075,0.0212 -0.01,0.0475 -0.0175,0.0687 -0.29,0.9278 -0.5413,1.8716 -0.7613,2.8266 -4.5812,19.0685 6.1813,38.7485 25.155,44.911 3.28,1.065 6.5988,1.629 9.8863,1.7814 l 39.8075,0.0485 z"/>
    <path id="N" d="M 102.7717,55.352 92.098,38.593 l 0,16.759 -8.1913,0 0,-33.33 7.1638,0 10.6725,16.76 0,-16.76 8.1912,0 0,33.33 -7.1625,0 z"/>    
    <path id="e" d="m 128.5217,38.1644 c -0.4675,-1.0763 -1.4975,-1.965 -3.3218,-1.965 -1.8262,0 -2.8575,0.8887 -3.325,1.965  -0.3262,0.6562 -0.4194,1.3575 -0.4194,1.9662 l 7.4875,0 c 0,-0.6087 -0.0938,-1.31 -0.4213,-1.9662 m -7.0662,7.0675 c 0,2.0622 1.5899,3.9322 4.4456,3.9322 2.6688,0 3.84,-0.7463   5.1963,-2.1063 l 4.5862,4.589 c -2.5731,2.575 -5.1013,3.98 -9.7825,3.98 -5.5706,0 -11.9838,-2.014 -11.9838,-12.874 0,-8.2387 4.6806,-12.875 11.2825,-12.875 7.3012,0 11.3287,5.34 11.3287,11.94 l 0,3.414 -15.0731,0 z"/>
    <path id="w" d="m 165.5967,55.352 -6.135,0 -4.54,-13.81 -4.54,13.81 -6.1312,0 -7.585,-25.185 8.0975,0 3.1375,13.061 4.3537,-13.061 5.335,0 4.3525,13.061 3.1388,-13.061 8.0975,0 -7.5813,25.185 z"/>
    <path id="P" d="m 188.2092,29.3644 -4.6337,0 0,6.7425 4.6337,0 c 2.2475,0 3.56,-1.6416 3.56,-3.3728 0,-1.7325 -1.3125,-3.37 -3.56,-3.37 m 0.3775,14.09 -5.0112,0 0,11.89 -8.1913,0 0,-33.33 13.2025,0 c 7.395,0 11.3725,5.2412 11.3725,10.72 0,5.4762 -3.9775,10.72 -11.3725,10.72"/>
    <path id="o" d="m 214.6592,37.5144 c -0.47,-0.4675 -1.1237,-0.7013 -2.0587,-0.7013 -0.9375,0 -1.5938,0.234 -2.0613,0.7016 -0.9825,0.9837 -1.1212,2.7625 -1.1212,5.2437 0,2.48 0.1387,4.259 1.1212,5.2426 0.4675,0.4674 1.1238,0.7037 2.0613,0.7037 0.935,0 1.5887,-0.2363 2.0587,-0.7038 0.9838,-0.9838 1.1238,-2.7626 1.1238,-5.2426 0,-2.481 -0.14,-4.26 -1.1238,-5.2436 m 6.0388,14.8875 c -1.4975,1.5924 -4.0263,3.23 -8.0975,3.23 -4.0738,0 -6.6025,-1.6376 -8.0988,-3.23 -2.1087,-2.2964 -2.7637,-4.6826 -2.7637,-9.644 0,-4.915 0.655,-7.35 2.7637,-9.6436 1.4963,-1.5925 4.025,-3.23 8.0988,-3.23 4.0712,0 6.6,1.6375 8.0975,3.23 2.1075,2.2937 2.7612,4.7287 2.7612,9.6437 0,4.9614 -0.6537,7.3476 -2.7612,9.644"/>
    <path id="i" d="m 227.2042,31.148 7.6775,0 0,24.2014 -7.6775,0 0,-24.2014 z"/>
    <path id="n" d="m 253.3717,55.352 0,-15.074 c 0,-2.9024 -2.06,-3.4624 -3.0875,-3.4624 -1.03,0 -3.0887,0.56 -3.0887,3.4625 l 0,15.074 -7.68,0 0,-25.1851 7.4912,0 0,2.06 c 1.545,-1.5426 3.8375,-2.3414 5.8513,-2.3414 2.3862,0 4.305,0.7988 5.6637,2.1538 2.1538,2.1525 2.53,4.54 2.53,7.2087 l 0,16.104 -7.68,0 z"/>
    <path id="t" d="m 273.8342,55.352 c -5.5737,0 -7.82,-3.98 -7.82,-7.445 l 0,-10.859 -2.2925,0 0,-5.8974 2.2925,0 0,-7.21 7.6788,0 0,7.21 3.9787,0 0,5.8975 -3.9787,0 0,10.3 c 0,0.9816 0.515,1.545 1.5437,1.545 l 2.435,0 0,6.459 -3.8375,0 z"/>
    <use id="e2" x="166.2375" xlink:href="#e"/>
    <path id="_C"  d="m 89.2967,76.552 c -1.945,0 -3.4204,-0.655 -4.6387,-1.8714 -1.7575,-1.76 -1.6871,-4.1 -1.6871,-6.6075 0,-2.506 -0.0704,-4.851 1.6871,-6.605 1.2183,-1.2172 2.6937,-1.8734 4.6387,-1.8734 2.2013,0 3.4879,0.7275 4.6125,1.8487 l -2.7175,2.719 c -0.5375,-0.54 -0.9596,-0.9126 -1.895,-0.9126 -0.7512,0 -1.2891,0.305 -1.5933,0.7 -0.3767,0.4925 -0.6325,1.0812 -0.6325,4.1237 0,3.0476 0.2558,3.629 0.6325,4.1226 0.3042,0.3962 0.8421,0.7037 1.5933,0.7037 0.9355,0 1.3575,-0.375 1.895,-0.9125 l 2.7175,2.7136 c -1.1246,1.1275 -2.4112,1.8513 -4.6125,1.8513"/>
    <path id="_O" d="m 102.6592,63.977 c -0.3062,-0.3964 -0.8912,-0.724 -1.64,-0.724 -0.7487,0 -1.335,0.3276 -1.64,0.724 -0.375,0.4936 -0.6087,1.0574 -0.6087,4.0986 0,3.0488 0.2337,3.5838 0.6087,4.0738 0.305,0.4 0.8913,0.7537 1.64,0.7537 0.7488,0 1.3338,-0.3534 1.64,-0.7534 0.375,-0.49 0.6088,-1.025 0.6088,-4.0738 0,-3.0412 -0.2338,-3.605 -0.6088,-4.0987 m 3.0225,10.706 c -1.2187,1.2165 -2.625,1.8727 -4.6625,1.8727 -2.0375,0 -3.4425,-0.6562 -4.6612,-1.8725 -1.7575,-1.76 -1.6863,-4.1 -1.6863,-6.6073 0,-2.5063 -0.0712,-4.8513 1.6863,-6.605 1.2187,-1.2176 2.6237,-1.8738 4.6612,-1.8738 2.0375,0 3.4438,0.656 4.6625,1.8736 1.755,1.7538 1.6863,4.0988 1.6863,6.605 0,2.5075 0.0688,4.8475 -1.6863,6.6075"/>
    <path id="_M" d="m 121.4842,76.4144 0,-7.9864 -2.3656,4.12 -2.6244,0 -2.3631,-4.12 0,7.9864 -4.1,0 0,-16.6774 4.0294,0 3.745,7.356 3.7493,-7.356 4.0275,0 0,16.6774 -4.0981,0 z"/>
    <use id="_M2" x="18.75" xlink:href="#_M"/>
    <path id="_U" d="m 153.5467,76.552 c -3.4662,0 -6.3012,-2.3414 -6.3012,-5.9976 l 0,-10.8188 4.0987,0 0,10.7288 c 0,1.5437 0.845,2.435 2.2025,2.435 1.36,0 2.2488,-0.8913 2.2488,-2.435 l 0,-10.7288 4.0987,0 0,10.8188 c 0,3.6562 -2.8825,5.9975 -6.3475,5.9975"/>
    <path id="_N" d="m 172.2467,76.4144 -5.3387,-8.3863 0,8.3866 -4.1013,0 0,-16.6777 3.5863,0 5.3375,8.385 0,-8.385 4.1,0 0,16.6774 -3.5838,0 z"/>
    <path id="_I" d="m 179.033,59.7406 4.0987,0 0,16.6774 -4.0987,0 0,-16.6773 z"/>
    <path id="_T" d="m 193.5467,63.3894 0,13.0236 -4.1,0 0,-13.0235 -4.0987,0 0,-3.6538 12.2987,0 0,3.6538 -4.1,0 z"/>
    <path id="_Y" d="m 207.3092,69.627 0,6.7936 -4.0975,0 0,-6.7936 -5.0387,-9.884 4.475,0 2.6237,5.995 2.5988,-5.995 4.4737,0 -5.035,9.884 z"/>
    <use id="_C2" x="135.3875" xlink:href="#_C"/>
    <path id="_H" d="m 239.9842,76.4144 0,-6.6074 -4.355,0 0,6.6074 -4.1012,0 0,-16.6774 4.1012,0 0,6.415 4.355,0 0,-6.415 4.0975,0 0,16.6774 -4.0975,0 z"/>
    <path id="_U2" d="m 253.3092,76.552 c -3.4662,0 -6.3012,-2.3414 -6.3012,-5.9976 l 0,-10.8188 4.0975,0 0,10.7288 c 0,1.5437 0.845,2.435 2.2037,2.435 1.3588,0 2.25,-0.8913 2.25,-2.435 l 0,-10.7288 4.095,0 0,10.8188 c 0,3.6562 -2.8787,5.9975 -6.345,5.9975"/>
    <path id="_R" d="m 268.9967,63.4144 -2.3175,0 0,3.3737 2.3175,0 c 1.1238,0 1.78,-0.821 1.78,-1.685 0,-0.8672 -0.6562,-1.6884 -1.78,-1.6884 m 2.0125,13.0012 -2.95,-6.2062 -1.38,0 0,6.2062 -4.1012,0 0,-16.6765 6.6075,0 c 3.6987,0 5.6887,2.6225 5.6887,5.3637 0,2.27 -1.4025,3.7016 -2.715,4.354 l 3.6088,6.9588 -4.7588,0 z"/>
    <use id="_C3" x="194.1625" xlink:href="#_C"/>
    <path id="_H2" d="m 298.7717,76.4144 0,-6.6074 -4.355,0 0,6.6074 -4.1012,0 0,-16.6774 4.1012,0 0,6.415 4.355,0 0,-6.415 4.0975,0 0,16.6774 -4.0975,0 z"/>
    <path id="i_point" d="m 230.8467,28.5894 0.005,-0.0025 c -0.3337,-0.0178 -0.6687,-0.074 -1.0025,-0.1828 -1.9237,-0.6225 -3.015,-2.62 -2.55,-4.5525 0.0213,-0.0976 0.0475,-0.1926 0.0762,-0.2864 0,-0.0012 0.002,-0.005 0.002,-0.005 0,-0.01 0.005,-0.015 0.006,-0.0225 0.1125,-0.345 0.2713,-0.6725 0.4688,-0.9675 0.4112,-0.6075 0.995,-1.0912 1.6775,-1.3812 0.4587,-0.1912 0.9612,-0.2974 1.4862,-0.2974 0.4185,0 0.8235,0.0674 1.1972,0.191 0.005,0.0013 0.007,0.0013 0.0125,0.0026 0.005,0.0025 0.0136,0.0063 0.0236,0.01 0.0838,0.0288 0.1688,0.0638 0.2525,0.0975 0.059,0.0225 0.1125,0.0475 0.1663,0.0725 l 0.002,0.0025 c 1.2876,0.605 2.115,1.8614 2.2013,3.234 l 0.002,0 0.009,4.091 -4.0375,-0.0037 z"/>
  </g>
</svg>
